PathFileType	4	(X/Y/Z)	 0.06m3min.trc
DataRate	CameraRate	NumFrames	NumMarkers	Units	OrigDataRate	OrigDataStartFrame	OrigNumFrames
200	200	9	35	m	200	751	1000
Frame#	Time	C7			LSH			RSH			MAN			RASI			LASI			HIPR			HIPL			RPSI			LPSI			COX			RTHI1			RTHI2			RTHI3			RTHI4			RSHA1			RSHA2			RSHA3			RSHA4			RHEEL			RMET5			RMET1			RTOE			LTHI1			LTHI2			LTHI3			LTHI4			LSHA1			LSHA2			LSHA3			LSHA4			LHEEL			LMET5			LMET1			LTOE			
		X1	Y1	Z1	X2	Y2	Z2	X3	Y3	Z3	X4	Y4	Z4	X5	Y5	Z5	X6	Y6	Z6	X7	Y7	Z7	X8	Y8	Z8	X9	Y9	Z9	X10	Y10	Z10	X11	Y11	Z11	X12	Y12	Z12	X13	Y13	Z13	X14	Y14	Z14	X15	Y15	Z15	X16	Y16	Z16	X17	Y17	Z17	X18	Y18	Z18	X19	Y19	Z19	X20	Y20	Z20	X21	Y21	Z21	X22	Y22	Z22	X23	Y23	Z23	X24	Y24	Z24	X25	Y25	Z25	X26	Y26	Z26	X27	Y27	Z27	X28	Y28	Z28	X29	Y29	Z29	X30	Y30	Z30	X31	Y31	Z31	X32	Y32	Z32	X33	Y33	Z33	X34	Y34	Z34	X35	Y35	Z35	
751	3.7550	-0.295066	1.313033	-0.505534	-0.240527	1.293565	-0.663958	-0.243806	1.279973	-0.334957	-0.183387	1.257742	-0.503418	-0.177877	0.877677	-0.408292	-0.164622	0.890594	-0.608148	-0.231279	0.912781	-0.365410	-0.217633	0.928755	-0.634825	-0.325650	0.903657	-0.443747	-0.311890	0.914479	-0.556636	-0.324408	0.910827	-0.504327	-0.242187	0.659593	-0.333890	-0.218298	0.604930	-0.335503	-0.158326	0.629505	-0.342815	-0.176243	0.688111	-0.342413	-0.280818	0.275135	-0.317429	-0.303689	0.238484	-0.320875	-0.249124	0.212472	-0.328948	-0.230934	0.248705	-0.329673	-0.417747	0.076259	-0.374838	-0.277027	0.028810	-0.295915	-0.236047	0.031733	-0.374443	-0.210644	0.024987	-0.358782	-0.223331	0.684984	-0.670291	-0.202319	0.626913	-0.666880	-0.141740	0.643752	-0.652071	-0.154131	0.702955	-0.653328	-0.294629	0.244316	-0.678189	-0.318172	0.211721	-0.675632	-0.264190	0.182960	-0.661065	-0.246647	0.222783	-0.666373	-0.419463	0.066639	-0.637489	-0.262411	0.025623	-0.693811	-0.233581	0.030572	-0.613741	-0.205629	0.022958	-0.623887	
752	3.7600	-0.295092	1.311299	-0.505392	-0.240535	1.291602	-0.663858	-0.243975	1.278106	-0.334738	-0.183521	1.255709	-0.503227	-0.178059	0.876340	-0.408164	-0.164988	0.889072	-0.608078	-0.231734	0.911326	-0.365284	-0.218211	0.927147	-0.634732	-0.325969	0.902002	-0.443711	-0.312273	0.912681	-0.556563	-0.324754	0.909092	-0.504254	-0.241788	0.657966	-0.333844	-0.217639	0.603430	-0.335445	-0.157776	0.628274	-0.342698	-0.175957	0.686789	-0.342287	-0.279611	0.274698	-0.317394	-0.302711	0.238165	-0.320950	-0.248366	0.211735	-0.329013	-0.229876	0.247826	-0.329752	-0.417626	0.076061	-0.374792	-0.276986	0.028805	-0.295915	-0.236002	0.031706	-0.374513	-0.210567	0.024962	-0.358809	-0.222347	0.682979	-0.670313	-0.200915	0.625075	-0.666728	-0.140549	0.642374	-0.651624	-0.153370	0.701495	-0.653003	-0.293200	0.243740	-0.677700	-0.316978	0.211309	-0.675192	-0.263219	0.182122	-0.660571	-0.245385	0.221861	-0.665829	-0.419346	0.066725	-0.637185	-0.262362	0.025651	-0.693653	-0.233475	0.030528	-0.613612	-0.205521	0.022943	-0.623849	
753	3.7650	-0.295176	1.309931	-0.505270	-0.240600	1.290019	-0.663782	-0.244151	1.276660	-0.334545	-0.183689	1.254099	-0.503057	-0.178116	0.875370	-0.408103	-0.165245	0.887802	-0.608059	-0.232008	0.910342	-0.365214	-0.218636	0.925775	-0.634649	-0.326164	0.900749	-0.443686	-0.312532	0.911185	-0.556545	-0.324964	0.907716	-0.504230	-0.241441	0.656693	-0.333690	-0.217086	0.602268	-0.335288	-0.157312	0.627316	-0.342521	-0.175710	0.685762	-0.342097	-0.278693	0.274419	-0.317224	-0.301964	0.237980	-0.320929	-0.247803	0.211223	-0.328934	-0.229063	0.247173	-0.329680	-0.417547	0.075953	-0.374679	-0.276940	0.028786	-0.295865	-0.235982	0.031690	-0.374546	-0.210515	0.024947	-0.358815	-0.221439	0.681347	-0.670374	-0.199610	0.623595	-0.666650	-0.139434	0.641321	-0.651333	-0.152660	0.700360	-0.652803	-0.291926	0.243414	-0.677208	-0.315902	0.211139	-0.674725	-0.262302	0.181551	-0.660132	-0.244239	0.221240	-0.665365	-0.419150	0.067024	-0.636762	-0.262323	0.025687	-0.693455	-0.233337	0.030486	-0.613490	-0.205401	0.022926	-0.623819	
754	3.7700	-0.295324	1.308943	-0.505175	-0.240735	1.288832	-0.663733	-0.244347	1.275645	-0.334381	-0.183896	1.252933	-0.502912	-0.178039	0.874748	-0.408093	-0.165379	0.886814	-0.608095	-0.232101	0.909793	-0.365176	-0.218906	0.924631	-0.634595	-0.326218	0.899887	-0.443659	-0.312656	0.910015	-0.556558	-0.325033	0.906702	-0.504230	-0.241153	0.655794	-0.333449	-0.216653	0.601448	-0.335047	-0.156940	0.626653	-0.342280	-0.175491	0.685032	-0.341850	-0.278060	0.274252	-0.316933	-0.301448	0.237880	-0.320810	-0.247423	0.210886	-0.328741	-0.228502	0.246726	-0.329469	-0.417505	0.075915	-0.374512	-0.276891	0.028753	-0.295774	-0.235986	0.031682	-0.374547	-0.210484	0.024938	-0.358803	-0.220645	0.680144	-0.670450	-0.198465	0.622519	-0.666647	-0.138438	0.640621	-0.651216	-0.152018	0.699584	-0.652731	-0.290831	0.243337	-0.676732	-0.314969	0.211200	-0.674248	-0.261477	0.181247	-0.659767	-0.243242	0.220906	-0.664990	-0.418891	0.067502	-0.636245	-0.262292	0.025731	-0.693226	-0.233169	0.030448	-0.613374	-0.205266	0.022910	-0.623791	
755	3.7750	-0.295538	1.308341	-0.505110	-0.240952	1.288054	-0.663709	-0.244580	1.275069	-0.334246	-0.184138	1.252219	-0.502791	-0.177821	0.874465	-0.408125	-0.165382	0.886145	-0.608178	-0.232009	0.909615	-0.365150	-0.219029	0.923744	-0.634578	-0.326143	0.899403	-0.443593	-0.312640	0.909202	-0.556580	-0.324953	0.906068	-0.504229	-0.240918	0.655311	-0.333146	-0.216347	0.601006	-0.334742	-0.156665	0.626277	-0.341986	-0.175296	0.684623	-0.341555	-0.277702	0.274145	-0.316560	-0.301161	0.237825	-0.320593	-0.247221	0.210698	-0.328455	-0.228187	0.246467	-0.329124	-0.417501	0.075929	-0.374304	-0.276846	0.028705	-0.295647	-0.236010	0.031684	-0.374521	-0.210473	0.024933	-0.358776	-0.219998	0.679398	-0.670527	-0.197538	0.621871	-0.666712	-0.137610	0.640258	-0.651269	-0.151463	0.699172	-0.652780	-0.289931	0.243495	-0.676302	-0.314197	0.211470	-0.673789	-0.260784	0.181214	-0.659489	-0.242410	0.220856	-0.664717	-0.418581	0.068125	-0.635658	-0.262272	0.025782	-0.692977	-0.232980	0.030414	-0.613264	-0.205126	0.022892	-0.623762	
756	3.7800	-0.295820	1.308130	-0.505070	-0.241258	1.287689	-0.663707	-0.244862	1.274940	-0.334143	-0.184415	1.251967	-0.502695	-0.177464	0.874514	-0.408188	-0.165243	0.885832	-0.608295	-0.231742	0.909768	-0.365118	-0.219017	0.923141	-0.634603	-0.325929	0.899284	-0.443484	-0.312482	0.908775	-0.556582	-0.324731	0.905813	-0.504207	-0.240738	0.655256	-0.332812	-0.216170	0.600948	-0.334388	-0.156488	0.626208	-0.341637	-0.175117	0.684558	-0.341234	-0.277609	0.274080	-0.316139	-0.301100	0.237794	-0.320279	-0.247180	0.210634	-0.328092	-0.228096	0.246356	-0.328664	-0.417524	0.075990	-0.374071	-0.276806	0.028642	-0.295489	-0.236050	0.031693	-0.374470	-0.210477	0.024930	-0.358737	-0.219522	0.679130	-0.670587	-0.196871	0.621666	-0.666837	-0.136977	0.640238	-0.651497	-0.151012	0.699112	-0.652951	-0.289242	0.243869	-0.675941	-0.313595	0.211934	-0.673375	-0.260211	0.181434	-0.659291	-0.241750	0.221074	-0.664550	-0.418231	0.068868	-0.635036	-0.262263	0.025838	-0.692722	-0.232781	0.030385	-0.613164	-0.204989	0.022877	-0.623732	
757	3.7850	-0.296165	1.308314	-0.505052	-0.241654	1.287744	-0.663720	-0.245197	1.275249	-0.334073	-0.184727	1.252177	-0.502625	-0.176977	0.874894	-0.408270	-0.164958	0.885922	-0.608425	-0.231302	0.910226	-0.365068	-0.218869	0.922886	-0.634661	-0.325557	0.899521	-0.443340	-0.312185	0.908773	-0.556539	-0.324376	0.905948	-0.504137	-0.240616	0.655635	-0.332471	-0.216124	0.601290	-0.333991	-0.156409	0.626461	-0.341238	-0.174952	0.684840	-0.340900	-0.277770	0.274076	-0.315686	-0.301248	0.237794	-0.319883	-0.247272	0.210697	-0.327661	-0.228232	0.246411	-0.328151	-0.417569	0.076096	-0.373812	-0.276774	0.028564	-0.295310	-0.236103	0.031708	-0.374397	-0.210498	0.024930	-0.358686	-0.219227	0.679339	-0.670621	-0.196480	0.621902	-0.667008	-0.136553	0.640547	-0.651892	-0.150677	0.699397	-0.653237	-0.288770	0.244437	-0.675673	-0.313171	0.212558	-0.673031	-0.259762	0.181901	-0.659179	-0.241277	0.221542	-0.664495	-0.417853	0.069719	-0.634428	-0.262264	0.025895	-0.692477	-0.232581	0.030360	-0.613082	-0.204861	0.022861	-0.623704	
758	3.7900	-0.296566	1.308887	-0.505050	-0.242131	1.288214	-0.663747	-0.245582	1.275994	-0.334036	-0.185070	1.252852	-0.502578	-0.176375	0.875612	-0.408349	-0.164526	0.886445	-0.608539	-0.230713	0.910985	-0.364987	-0.218580	0.923038	-0.634735	-0.325039	0.900110	-0.443156	-0.311752	0.909220	-0.556435	-0.323899	0.906482	-0.504007	-0.240554	0.656461	-0.332134	-0.216220	0.602028	-0.333558	-0.156434	0.627051	-0.340792	-0.174811	0.685479	-0.340555	-0.278169	0.274158	-0.315209	-0.301598	0.237855	-0.319412	-0.247507	0.210914	-0.327194	-0.228586	0.246659	-0.327568	-0.417601	0.076253	-0.373513	-0.276751	0.028479	-0.295117	-0.236163	0.031725	-0.374304	-0.210533	0.024937	-0.358622	-0.219108	0.680012	-0.670626	-0.196362	0.622567	-0.667216	-0.136340	0.641176	-0.652429	-0.150447	0.700028	-0.653627	-0.288510	0.245187	-0.675520	-0.312922	0.213321	-0.672782	-0.259460	0.182602	-0.659170	-0.240993	0.222246	-0.664558	-0.417455	0.070669	-0.633891	-0.262267	0.025951	-0.692252	-0.232394	0.030340	-0.613027	-0.204759	0.022846	-0.623688	
759	3.7950	-0.297013	1.309847	-0.505063	-0.242675	1.289088	-0.663786	-0.246016	1.277163	-0.334028	-0.185438	1.253978	-0.502550	-0.175676	0.876676	-0.408405	-0.163952	0.887414	-0.608610	-0.229988	0.912031	-0.364876	-0.218129	0.923662	-0.634802	-0.324399	0.901099	-0.442946	-0.311190	0.910122	-0.556270	-0.323303	0.907421	-0.503821	-0.240558	0.657718	-0.331780	-0.216448	0.603174	-0.333084	-0.156560	0.627968	-0.340309	-0.174702	0.686470	-0.340195	-0.278798	0.274368	-0.314714	-0.302126	0.238023	-0.318888	-0.247877	0.211325	-0.326689	-0.229140	0.247129	-0.326934	-0.417610	0.076490	-0.373179	-0.276730	0.028397	-0.294917	-0.236227	0.031744	-0.374190	-0.210581	0.024952	-0.358546	-0.219145	0.681123	-0.670604	-0.196488	0.623646	-0.667448	-0.136321	0.642124	-0.653080	-0.150320	0.700998	-0.654110	-0.288460	0.246106	-0.675503	-0.312841	0.214212	-0.672649	-0.259290	0.183534	-0.659276	-0.240884	0.223194	-0.664749	-0.417034	0.071711	-0.633459	-0.262263	0.026005	-0.692062	-0.232228	0.030326	-0.613004	-0.204688	0.022833	-0.623689	
